<mxfile host="app.diagrams.net" agent="Mozilla/5.0 (Windows NT 10.0; Win64; x64) AppleWebKit/537.36 (KHTML, like Gecko) Chrome/131.0.0.0 Safari/537.36" version="25.0.3">
  <diagram name="第 1 页" id="y38Ul9vlqAH-STh2AElB">
    <mxGraphModel dx="1147" dy="618" grid="1" gridSize="10" guides="1" tooltips="1" connect="1" arrows="1" fold="1" page="1" pageScale="1" pageWidth="827" pageHeight="1169" math="0" shadow="0">
      <root>
        <mxCell id="0" />
        <mxCell id="1" parent="0" />
        <mxCell id="FSgiWotWoUx7oEefbV2D-14" style="rounded=0;orthogonalLoop=1;jettySize=auto;html=1;exitX=0.5;exitY=1;exitDx=0;exitDy=0;endArrow=none;endFill=0;" edge="1" parent="1" source="FSgiWotWoUx7oEefbV2D-6" target="FSgiWotWoUx7oEefbV2D-8">
          <mxGeometry relative="1" as="geometry" />
        </mxCell>
        <mxCell id="FSgiWotWoUx7oEefbV2D-15" value="2::讀取選取月曆()" style="edgeLabel;html=1;align=center;verticalAlign=middle;resizable=0;points=[];" vertex="1" connectable="0" parent="FSgiWotWoUx7oEefbV2D-14">
          <mxGeometry x="-0.3712" relative="1" as="geometry">
            <mxPoint x="23" y="6" as="offset" />
          </mxGeometry>
        </mxCell>
        <mxCell id="FSgiWotWoUx7oEefbV2D-48" style="edgeStyle=orthogonalEdgeStyle;rounded=0;orthogonalLoop=1;jettySize=auto;html=1;endArrow=none;endFill=0;" edge="1" parent="1" source="FSgiWotWoUx7oEefbV2D-6" target="FSgiWotWoUx7oEefbV2D-7">
          <mxGeometry relative="1" as="geometry" />
        </mxCell>
        <mxCell id="FSgiWotWoUx7oEefbV2D-51" value="6:查看日程行程()" style="edgeLabel;html=1;align=center;verticalAlign=middle;resizable=0;points=[];" vertex="1" connectable="0" parent="FSgiWotWoUx7oEefbV2D-48">
          <mxGeometry x="-0.6182" y="3" relative="1" as="geometry">
            <mxPoint as="offset" />
          </mxGeometry>
        </mxCell>
        <mxCell id="FSgiWotWoUx7oEefbV2D-63" style="rounded=0;orthogonalLoop=1;jettySize=auto;html=1;endArrow=none;endFill=0;" edge="1" parent="1" source="FSgiWotWoUx7oEefbV2D-6" target="FSgiWotWoUx7oEefbV2D-9">
          <mxGeometry relative="1" as="geometry" />
        </mxCell>
        <mxCell id="FSgiWotWoUx7oEefbV2D-6" value="&lt;div&gt;&lt;span style=&quot;background-color: initial;&quot;&gt;月曆UI&lt;/span&gt;&lt;/div&gt;" style="rounded=0;whiteSpace=wrap;html=1;" vertex="1" parent="1">
          <mxGeometry x="324" y="300" width="120" height="40" as="geometry" />
        </mxCell>
        <mxCell id="FSgiWotWoUx7oEefbV2D-52" style="rounded=0;orthogonalLoop=1;jettySize=auto;html=1;endArrow=none;endFill=0;" edge="1" parent="1" source="FSgiWotWoUx7oEefbV2D-7" target="FSgiWotWoUx7oEefbV2D-10">
          <mxGeometry relative="1" as="geometry" />
        </mxCell>
        <mxCell id="FSgiWotWoUx7oEefbV2D-7" value="日程UI" style="rounded=0;whiteSpace=wrap;html=1;" vertex="1" parent="1">
          <mxGeometry x="324" y="150" width="120" height="40" as="geometry" />
        </mxCell>
        <mxCell id="FSgiWotWoUx7oEefbV2D-18" style="rounded=0;orthogonalLoop=1;jettySize=auto;html=1;endArrow=none;endFill=0;" edge="1" parent="1" source="FSgiWotWoUx7oEefbV2D-8" target="FSgiWotWoUx7oEefbV2D-10">
          <mxGeometry relative="1" as="geometry" />
        </mxCell>
        <mxCell id="FSgiWotWoUx7oEefbV2D-19" value="3:顯示已有行程的日期()" style="edgeLabel;html=1;align=center;verticalAlign=middle;resizable=0;points=[];" vertex="1" connectable="0" parent="FSgiWotWoUx7oEefbV2D-18">
          <mxGeometry x="-0.1818" y="-2" relative="1" as="geometry">
            <mxPoint x="24" y="30" as="offset" />
          </mxGeometry>
        </mxCell>
        <mxCell id="FSgiWotWoUx7oEefbV2D-8" value="萬年曆API(套件)" style="rounded=0;whiteSpace=wrap;html=1;" vertex="1" parent="1">
          <mxGeometry x="444" y="490" width="120" height="40" as="geometry" />
        </mxCell>
        <mxCell id="FSgiWotWoUx7oEefbV2D-9" value="建立形成UI" style="rounded=0;whiteSpace=wrap;html=1;" vertex="1" parent="1">
          <mxGeometry x="240" y="500" width="120" height="40" as="geometry" />
        </mxCell>
        <mxCell id="FSgiWotWoUx7oEefbV2D-39" style="rounded=0;orthogonalLoop=1;jettySize=auto;html=1;entryX=1;entryY=0.5;entryDx=0;entryDy=0;endArrow=none;endFill=0;" edge="1" parent="1" source="FSgiWotWoUx7oEefbV2D-10" target="FSgiWotWoUx7oEefbV2D-6">
          <mxGeometry relative="1" as="geometry" />
        </mxCell>
        <mxCell id="FSgiWotWoUx7oEefbV2D-40" value="4.用紅色標記已有行程的日期()" style="edgeLabel;html=1;align=center;verticalAlign=middle;resizable=0;points=[];" vertex="1" connectable="0" parent="FSgiWotWoUx7oEefbV2D-39">
          <mxGeometry x="0.0272" y="-2" relative="1" as="geometry">
            <mxPoint as="offset" />
          </mxGeometry>
        </mxCell>
        <mxCell id="FSgiWotWoUx7oEefbV2D-10" value="AC" style="rounded=0;whiteSpace=wrap;html=1;" vertex="1" parent="1">
          <mxGeometry x="700" y="300" width="120" height="40" as="geometry" />
        </mxCell>
        <mxCell id="FSgiWotWoUx7oEefbV2D-11" value="繁忙疏於管理的人" style="rounded=0;whiteSpace=wrap;html=1;" vertex="1" parent="1">
          <mxGeometry y="300" width="120" height="40" as="geometry" />
        </mxCell>
        <mxCell id="FSgiWotWoUx7oEefbV2D-29" style="rounded=0;orthogonalLoop=1;jettySize=auto;html=1;exitX=1;exitY=0.5;exitDx=0;exitDy=0;entryX=0;entryY=0.5;entryDx=0;entryDy=0;endArrow=none;endFill=0;startArrow=none;startFill=0;jumpStyle=none;" edge="1" parent="1">
          <mxGeometry relative="1" as="geometry" />
        </mxCell>
        <mxCell id="FSgiWotWoUx7oEefbV2D-30" value="1:查看月曆月份(月份)" style="edgeLabel;html=1;align=center;verticalAlign=middle;resizable=0;points=[];" vertex="1" connectable="0" parent="FSgiWotWoUx7oEefbV2D-29">
          <mxGeometry x="-0.0665" y="1" relative="1" as="geometry">
            <mxPoint as="offset" />
          </mxGeometry>
        </mxCell>
        <mxCell id="FSgiWotWoUx7oEefbV2D-31" value="" style="html=1;rounded=0;" edge="1" parent="1">
          <mxGeometry relative="1" as="geometry">
            <mxPoint x="410" y="408" as="sourcePoint" />
            <mxPoint x="430" y="440" as="targetPoint" />
          </mxGeometry>
        </mxCell>
        <mxCell id="FSgiWotWoUx7oEefbV2D-33" style="rounded=0;orthogonalLoop=1;jettySize=auto;html=1;exitX=1;exitY=0.5;exitDx=0;exitDy=0;entryX=0;entryY=0.5;entryDx=0;entryDy=0;endArrow=none;endFill=0;startArrow=none;startFill=0;jumpStyle=none;" edge="1" parent="1">
          <mxGeometry relative="1" as="geometry" />
        </mxCell>
        <mxCell id="FSgiWotWoUx7oEefbV2D-34" value="1:查看月曆月份(月份)" style="edgeLabel;html=1;align=center;verticalAlign=middle;resizable=0;points=[];" vertex="1" connectable="0" parent="FSgiWotWoUx7oEefbV2D-33">
          <mxGeometry x="-0.0665" y="1" relative="1" as="geometry">
            <mxPoint as="offset" />
          </mxGeometry>
        </mxCell>
        <mxCell id="FSgiWotWoUx7oEefbV2D-35" value="" style="html=1;rounded=0;" edge="1" parent="1">
          <mxGeometry relative="1" as="geometry">
            <mxPoint x="570" y="440" as="sourcePoint" />
            <mxPoint x="636" y="400" as="targetPoint" />
          </mxGeometry>
        </mxCell>
        <mxCell id="FSgiWotWoUx7oEefbV2D-36" style="rounded=0;orthogonalLoop=1;jettySize=auto;html=1;exitX=1;exitY=0.5;exitDx=0;exitDy=0;entryX=0;entryY=0.5;entryDx=0;entryDy=0;endArrow=none;endFill=0;startArrow=none;startFill=0;jumpStyle=none;dashed=1;" edge="1" parent="1">
          <mxGeometry relative="1" as="geometry" />
        </mxCell>
        <mxCell id="FSgiWotWoUx7oEefbV2D-37" value="1:查看月曆月份(月份)" style="edgeLabel;html=1;align=center;verticalAlign=middle;resizable=0;points=[];" vertex="1" connectable="0" parent="FSgiWotWoUx7oEefbV2D-36">
          <mxGeometry x="-0.0665" y="1" relative="1" as="geometry">
            <mxPoint as="offset" />
          </mxGeometry>
        </mxCell>
        <mxCell id="FSgiWotWoUx7oEefbV2D-38" value="" style="html=1;rounded=0;dashed=1;" edge="1" parent="1">
          <mxGeometry relative="1" as="geometry">
            <mxPoint x="590" y="337" as="sourcePoint" />
            <mxPoint x="534" y="337" as="targetPoint" />
          </mxGeometry>
        </mxCell>
        <mxCell id="FSgiWotWoUx7oEefbV2D-41" style="rounded=0;orthogonalLoop=1;jettySize=auto;html=1;exitX=1;exitY=0.5;exitDx=0;exitDy=0;entryX=0;entryY=0.5;entryDx=0;entryDy=0;endArrow=none;endFill=0;startArrow=none;startFill=0;jumpStyle=none;" edge="1" parent="1">
          <mxGeometry relative="1" as="geometry" />
        </mxCell>
        <mxCell id="FSgiWotWoUx7oEefbV2D-42" value="1:查看月曆月份(月份)" style="edgeLabel;html=1;align=center;verticalAlign=middle;resizable=0;points=[];" vertex="1" connectable="0" parent="FSgiWotWoUx7oEefbV2D-41">
          <mxGeometry x="-0.0665" y="1" relative="1" as="geometry">
            <mxPoint as="offset" />
          </mxGeometry>
        </mxCell>
        <mxCell id="FSgiWotWoUx7oEefbV2D-43" value="" style="html=1;rounded=0;" edge="1" parent="1">
          <mxGeometry relative="1" as="geometry">
            <mxPoint x="236" y="333" as="sourcePoint" />
            <mxPoint x="296" y="333" as="targetPoint" />
          </mxGeometry>
        </mxCell>
        <mxCell id="FSgiWotWoUx7oEefbV2D-44" value="5.點選要查看的日期()" style="text;html=1;align=center;verticalAlign=middle;resizable=0;points=[];autosize=1;strokeColor=none;fillColor=none;" vertex="1" parent="1">
          <mxGeometry x="100" y="337" width="140" height="30" as="geometry" />
        </mxCell>
        <mxCell id="FSgiWotWoUx7oEefbV2D-12" style="rounded=0;orthogonalLoop=1;jettySize=auto;html=1;exitX=1;exitY=0.5;exitDx=0;exitDy=0;entryX=0;entryY=0.5;entryDx=0;entryDy=0;endArrow=none;endFill=0;startArrow=none;startFill=0;jumpStyle=none;" edge="1" parent="1" source="FSgiWotWoUx7oEefbV2D-11" target="FSgiWotWoUx7oEefbV2D-6">
          <mxGeometry relative="1" as="geometry" />
        </mxCell>
        <mxCell id="FSgiWotWoUx7oEefbV2D-13" value="1:查看月曆月份(月份)" style="edgeLabel;html=1;align=center;verticalAlign=middle;resizable=0;points=[];" vertex="1" connectable="0" parent="FSgiWotWoUx7oEefbV2D-12">
          <mxGeometry x="-0.0665" y="1" relative="1" as="geometry">
            <mxPoint x="-35" y="11" as="offset" />
          </mxGeometry>
        </mxCell>
        <mxCell id="FSgiWotWoUx7oEefbV2D-50" value="" style="html=1;rounded=0;" edge="1" parent="1">
          <mxGeometry relative="1" as="geometry">
            <mxPoint x="360" y="270" as="sourcePoint" />
            <mxPoint x="360" y="230" as="targetPoint" />
          </mxGeometry>
        </mxCell>
        <mxCell id="FSgiWotWoUx7oEefbV2D-53" value="" style="html=1;rounded=0;" edge="1" parent="1">
          <mxGeometry relative="1" as="geometry">
            <mxPoint x="570" y="230" as="sourcePoint" />
            <mxPoint x="630" y="250" as="targetPoint" />
          </mxGeometry>
        </mxCell>
        <mxCell id="FSgiWotWoUx7oEefbV2D-54" value="8:顯示日程()" style="edgeLabel;html=1;align=center;verticalAlign=middle;resizable=0;points=[];" vertex="1" connectable="0" parent="FSgiWotWoUx7oEefbV2D-53">
          <mxGeometry x="-0.07" y="7" relative="1" as="geometry">
            <mxPoint x="10" y="-13" as="offset" />
          </mxGeometry>
        </mxCell>
        <mxCell id="FSgiWotWoUx7oEefbV2D-57" value="" style="html=1;rounded=0;dashed=1;" edge="1" parent="1">
          <mxGeometry relative="1" as="geometry">
            <mxPoint x="590" y="270" as="sourcePoint" />
            <mxPoint x="540" y="250" as="targetPoint" />
          </mxGeometry>
        </mxCell>
        <mxCell id="FSgiWotWoUx7oEefbV2D-58" value="9:檢視日程()" style="edgeLabel;html=1;align=center;verticalAlign=middle;resizable=0;points=[];" vertex="1" connectable="0" parent="FSgiWotWoUx7oEefbV2D-57">
          <mxGeometry x="-0.07" y="7" relative="1" as="geometry">
            <mxPoint x="36" y="3" as="offset" />
          </mxGeometry>
        </mxCell>
        <mxCell id="FSgiWotWoUx7oEefbV2D-59" value="10:返回當月月曆()" style="text;html=1;align=center;verticalAlign=middle;resizable=0;points=[];autosize=1;strokeColor=none;fillColor=none;" vertex="1" parent="1">
          <mxGeometry x="120" y="358" width="120" height="30" as="geometry" />
        </mxCell>
        <mxCell id="FSgiWotWoUx7oEefbV2D-60" value="11.點擊建立行程()" style="text;html=1;align=center;verticalAlign=middle;resizable=0;points=[];autosize=1;strokeColor=none;fillColor=none;" vertex="1" parent="1">
          <mxGeometry x="120" y="378" width="120" height="30" as="geometry" />
        </mxCell>
        <mxCell id="FSgiWotWoUx7oEefbV2D-64" value="" style="html=1;rounded=0;" edge="1" parent="1">
          <mxGeometry relative="1" as="geometry">
            <mxPoint x="330" y="410" as="sourcePoint" />
            <mxPoint x="310" y="452" as="targetPoint" />
          </mxGeometry>
        </mxCell>
        <mxCell id="FSgiWotWoUx7oEefbV2D-65" value="12:顯示建立行程框()" style="text;html=1;align=center;verticalAlign=middle;resizable=0;points=[];autosize=1;strokeColor=none;fillColor=none;" vertex="1" parent="1">
          <mxGeometry x="265" y="388" width="130" height="30" as="geometry" />
        </mxCell>
        <mxCell id="FSgiWotWoUx7oEefbV2D-66" value="" style="html=1;rounded=0;dashed=1;" edge="1" parent="1">
          <mxGeometry relative="1" as="geometry">
            <mxPoint x="330" y="470" as="sourcePoint" />
            <mxPoint x="360" y="418" as="targetPoint" />
          </mxGeometry>
        </mxCell>
        <mxCell id="FSgiWotWoUx7oEefbV2D-67" value="13:檢視行程輸入框()" style="text;html=1;align=center;verticalAlign=middle;resizable=0;points=[];autosize=1;strokeColor=none;fillColor=none;" vertex="1" parent="1">
          <mxGeometry x="299" y="460" width="130" height="30" as="geometry" />
        </mxCell>
        <mxCell id="FSgiWotWoUx7oEefbV2D-68" value="14:輸入行程()" style="text;html=1;align=center;verticalAlign=middle;resizable=0;points=[];autosize=1;strokeColor=none;fillColor=none;" vertex="1" parent="1">
          <mxGeometry x="120" y="400" width="100" height="30" as="geometry" />
        </mxCell>
      </root>
    </mxGraphModel>
  </diagram>
</mxfile>
